<svg width="560" height="560" viewBox="0 0 560 560" fill="none" xmlns="http://www.w3.org/2000/svg">
<g clip-path="url(#clip0_402_2)">
<path fill-rule="evenodd" clip-rule="evenodd" d="M280 0C434.616 0 560 125.384 560 280C560 434.616 434.616 560 280 560C125.384 560 0 434.616 0 280C0 125.384 125.384 0 280 0Z" fill="#383B4A"/>
<path fill-rule="evenodd" clip-rule="evenodd" d="M436.968 297.08L425.544 308.504C295.736 179.256 151.76 251.104 117.376 271.32C118.593 267.515 120.706 264.059 123.536 261.24L262.304 122.472C264.656 120.116 267.449 118.246 270.524 116.971C273.599 115.695 276.895 115.039 280.224 115.039C283.553 115.039 286.849 115.695 289.924 116.971C292.999 118.246 295.792 120.116 298.144 122.472L436.912 261.24C439.278 263.585 441.157 266.374 442.441 269.447C443.725 272.521 444.389 275.817 444.394 279.148C444.399 282.479 443.746 285.778 442.471 288.856C441.197 291.933 439.327 294.728 436.968 297.08Z" fill="white"/>
<path fill-rule="evenodd" clip-rule="evenodd" d="M329.616 404.432L298.2 435.848C295.848 438.204 293.055 440.074 289.98 441.349C286.905 442.625 283.609 443.281 280.28 443.281C276.951 443.281 273.655 442.625 270.58 441.349C267.505 440.074 264.712 438.204 262.36 435.848L232.344 405.832C280.616 371.672 321.888 398.664 329.616 404.432Z" fill="white"/>
<path fill-rule="evenodd" clip-rule="evenodd" d="M418.488 315.56L382.648 351.4C276.136 252.616 169.288 316.232 153.272 326.76L145.376 318.864C145.482 318.807 145.577 318.731 145.656 318.64C285.208 206.752 406.672 305.424 418.488 315.56Z" fill="white"/>
<path fill-rule="evenodd" clip-rule="evenodd" d="M199.976 373.52L191.352 364.896C274.176 289.408 365.176 353.64 373.968 360.136L337.344 396.76C271.768 333.648 210.952 366.632 199.976 373.52Z" fill="white"/>
</g>
<defs>
<clipPath id="clip0_402_2">
<rect width="560" height="560" fill="white"/>
</clipPath>
</defs>
</svg>
